<svg width="172" height="46" viewBox="0 0 172 46" fill="none" xmlns="http://www.w3.org/2000/svg">
<path d="M20.0063 0.77002L20.048 19.372V23.3869L19.9924 44.0658C19.9902 44.2022 20.0337 44.3354 20.1159 44.4442C20.1981 44.553 20.3143 44.6312 20.4461 44.6663C20.5778 44.7014 20.7176 44.6915 20.8431 44.6381C20.9685 44.5847 21.0725 44.4908 21.1385 44.3715L40.6852 14.1068L20.0063 0.77002Z" fill="url(#paint0_linear_2322_1077)"/>
<path d="M20.0064 0.77002L0.39716 31.1042C0.319419 31.2136 0.280786 31.346 0.287489 31.48C0.294191 31.6141 0.345839 31.742 0.434106 31.8431C0.522373 31.9442 0.642114 32.0126 0.77403 32.0373C0.905945 32.0621 1.04235 32.0417 1.16124 31.9794L16.304 25.1443L19.9925 23.4842L20.0064 0.77002Z" fill="url(#paint1_linear_2322_1077)"/>
<path d="M0.314119 31.6112C0.288903 31.5259 0.283302 31.436 0.297736 31.3482C0.31217 31.2604 0.346266 31.177 0.397473 31.1042L20.0067 0.77002V1.52716L0.397473 31.8196C0.353818 31.7576 0.325273 31.6863 0.314119 31.6112Z" fill="url(#paint2_linear_2322_1077)"/>
<path d="M20.3815 44.6593C20.2669 44.6169 20.1675 44.5415 20.0958 44.4426C20.0241 44.3438 19.9833 44.2259 19.9786 44.1039L20.002 0.770508L20.437 1.07576L20.5412 44.6871C20.4871 44.6841 20.4334 44.6748 20.3815 44.6593Z" fill="url(#paint3_linear_2322_1077)"/>
<path d="M50.7867 14.0376V13.343H53.8361V14.0376C53.8361 16.8856 55.656 18.254 58.4762 18.254C61.2964 18.254 62.7759 16.9134 62.7759 15.0379C62.7759 13.1624 61.1783 12.4747 58.5596 11.8773L57.5037 11.6203C53.6625 10.7382 51.2521 9.36976 51.2521 5.86887C51.2521 2.36797 54.0306 0.228516 58.1428 0.228516C62.255 0.228516 65.3738 2.36796 65.3738 6.54958V7.57763H62.3244V6.54958C62.3244 3.98643 60.6434 2.93756 58.1567 2.93756C55.6699 2.93756 54.3085 3.98642 54.3085 5.78549C54.3085 7.58457 55.6491 8.31394 58.1845 8.88353L59.2333 9.14053C63.0816 9.99492 65.8392 11.3911 65.8392 14.9754C65.8392 18.5596 62.9635 20.956 58.497 20.956C54.0306 20.956 50.7867 18.511 50.7867 14.0376Z" fill="#FCFCFC"/>
<path d="M68.2979 6.52173H71.2292L72.9935 18.5943H73.452L75.897 6.52173H80.6552L83.0725 18.5943H83.5309L85.2953 6.52173H88.2266L85.8371 20.5601H80.94L78.488 8.55003H78.0365L75.6122 20.5948H70.6874L68.2979 6.52173Z" fill="#FCFCFC"/>
<path d="M91.1649 2.62481C91.1593 2.22389 91.2732 1.83038 91.4919 1.49433C91.7107 1.15829 92.0244 0.894904 92.3932 0.737643C92.7621 0.580383 93.1693 0.536368 93.5632 0.611196C93.9572 0.686024 94.3199 0.876302 94.6054 1.15786C94.8909 1.43941 95.0862 1.7995 95.1664 2.19235C95.2467 2.58519 95.2083 2.99304 95.0562 3.36401C94.9041 3.73499 94.645 4.05232 94.312 4.27568C93.9791 4.49905 93.5872 4.61834 93.1862 4.61837C92.9195 4.63206 92.6529 4.59008 92.4033 4.49511C92.1537 4.40013 91.9266 4.25425 91.7365 4.06673C91.5464 3.87922 91.3974 3.65417 91.2989 3.40592C91.2005 3.15768 91.1549 2.89167 91.1649 2.62481ZM91.7067 6.52163H94.638V20.56H91.7067V6.52163Z" fill="#FCFCFC"/>
<path d="M101.529 9.00166H97.597V6.52185H101.529V3.45164C101.498 3.07357 101.55 2.69341 101.681 2.33746C101.812 1.9815 102.019 1.65824 102.287 1.39005C102.555 1.12185 102.879 0.915117 103.235 0.78414C103.59 0.653162 103.971 0.601075 104.349 0.63147H107.961V3.07653H105.286C105.172 3.06362 105.057 3.07707 104.949 3.11588C104.841 3.15468 104.743 3.2178 104.663 3.30034C104.583 3.38289 104.523 3.48268 104.488 3.59201C104.453 3.70134 104.443 3.81729 104.46 3.93093V6.52185H108.503V9.00166H104.46V20.5602H101.529V9.00166Z" fill="#FCFCFC"/>
<path d="M113.602 17.7403V9.00196H109.733V6.52215H113.602V1.88208H116.533V6.52215H120.701V9.00196H116.533V17.2263C116.533 17.7959 116.79 18.0807 117.332 18.0807H120.263V20.5605H116.394C116.017 20.5903 115.639 20.5375 115.284 20.4059C114.93 20.2743 114.609 20.067 114.343 19.7985C114.077 19.53 113.873 19.2068 113.745 18.8513C113.617 18.4958 113.568 18.1167 113.602 17.7403Z" fill="#FCFCFC"/>
<path d="M54.2598 42.0031V33.2648H50.3907V30.778H54.2598V26.1379H57.1911V30.778H61.3588V33.2578H57.1911V41.4891C57.1911 42.0517 57.4481 42.3365 57.9899 42.3365H60.9212V44.8163H57.0522C56.6761 44.846 56.2981 44.7934 55.9445 44.6622C55.5908 44.531 55.27 44.3243 55.0043 44.0566C54.7385 43.7889 54.5343 43.4665 54.4057 43.1119C54.2772 42.7573 54.2274 42.3789 54.2598 42.0031Z" fill="#FCFCFC"/>
<path d="M63.5746 37.9883V37.648C63.5746 33.2649 66.4504 30.3892 70.5764 30.3892C74.7025 30.3892 77.349 33.2371 77.349 37.509V38.6204H66.5615C66.5533 39.1639 66.6565 39.7034 66.8648 40.2054C67.0731 40.7075 67.382 41.1616 67.7725 41.5398C68.163 41.9179 68.6268 42.212 69.1353 42.404C69.6438 42.596 70.1863 42.6819 70.7293 42.6562C71.5398 42.7127 72.3468 42.5049 73.0293 42.0641C73.7118 41.6233 74.2331 40.9731 74.515 40.2111L76.96 41.4614C76.403 42.6421 75.5069 43.6301 74.386 44.2994C73.2652 44.9687 71.9704 45.289 70.6667 45.2193C66.4157 45.2193 63.5746 42.3436 63.5746 37.9883ZM74.3899 36.3698C74.2232 34.286 72.7367 32.9801 70.5487 32.9801C69.5747 32.9072 68.6115 33.2229 67.8696 33.8581C67.1277 34.4932 66.6674 35.3963 66.5893 36.3698H74.3899Z" fill="#FCFCFC"/>
<path d="M79.0649 37.9883V37.6202C79.0649 33.0912 82.1907 30.3892 86.2681 30.3892C90.3456 30.3892 92.5822 32.8412 93.124 35.8003L90.2761 36.3976C90.2401 35.9152 90.1092 35.4446 89.8908 35.0129C89.6725 34.5812 89.3711 34.1968 89.0039 33.8819C88.6367 33.567 88.2109 33.3276 87.7509 33.1776C87.291 33.0276 86.806 32.97 86.3237 33.0079C83.8717 33.0079 81.9962 34.7167 81.9962 37.6757V37.9327C81.9962 40.8918 83.8717 42.6006 86.3237 42.6006C87.3066 42.68 88.2814 42.3698 89.0376 41.7369C89.7939 41.1041 90.2712 40.1993 90.3664 39.2178L93.2143 39.8708C92.5197 42.8021 90.3108 45.2194 86.2681 45.2194C82.2254 45.2194 79.0649 42.5451 79.0649 37.9883Z" fill="#FCFCFC"/>
<path d="M95.465 24.8948H98.3963V32.7787H98.8478C99.3896 31.7299 100.584 30.5629 103.266 30.5629C106.454 30.5629 108.76 32.7787 108.76 36.3977V44.8235H105.829V36.627C105.829 34.1749 104.544 33.0635 102.411 33.0635C99.987 33.0635 98.3963 34.7167 98.3963 37.7314V44.8235H95.465V24.8948Z" fill="#FCFCFC"/>
<path d="M112.406 30.7781H115.254V32.862H115.706C116.248 31.7228 117.47 30.5281 120.179 30.5281C123.368 30.5281 125.674 32.7439 125.674 36.3629V44.7887H122.742V36.5921C122.742 34.1401 121.457 33.0287 119.325 33.0287C116.901 33.0287 115.31 34.6819 115.31 37.6966V44.7887H112.406V30.7781Z" fill="#FCFCFC"/>
<path d="M128.807 26.8885C128.801 26.4876 128.915 26.0941 129.134 25.758C129.353 25.422 129.666 25.1586 130.035 25.0013C130.404 24.8441 130.811 24.8 131.205 24.8749C131.599 24.9497 131.962 25.14 132.247 25.4215C132.533 25.7031 132.728 26.0632 132.808 26.456C132.889 26.8489 132.85 27.2567 132.698 27.6277C132.546 27.9987 132.287 28.316 131.954 28.5394C131.621 28.7627 131.229 28.882 130.828 28.882C130.561 28.8957 130.295 28.8538 130.045 28.7588C129.796 28.6638 129.569 28.5179 129.378 28.3304C129.188 28.1429 129.039 27.9178 128.941 27.6696C128.842 27.4213 128.797 27.1553 128.807 26.8885ZM129.349 30.7853H132.28V44.8236H129.349V30.7853Z" fill="#FCFCFC"/>
<path d="M135.398 37.9883V37.6202C135.398 33.0912 138.531 30.3892 142.602 30.3892C146.672 30.3892 148.923 32.8412 149.458 35.8003L146.617 36.3976C146.58 35.9149 146.448 35.4442 146.229 35.0124C146.01 34.5807 145.708 34.1963 145.34 33.8815C144.972 33.5666 144.546 33.3274 144.086 33.1775C143.625 33.0276 143.14 32.9699 142.657 33.0079C140.205 33.0079 138.33 34.7167 138.33 37.6757V37.9327C138.33 40.8918 140.205 42.6006 142.657 42.6006C143.641 42.6818 144.616 42.3723 145.373 41.7391C146.13 41.1059 146.606 40.2 146.7 39.2178L149.548 39.8708C148.895 42.8021 146.644 45.2194 142.602 45.2194C138.559 45.2194 135.398 42.5451 135.398 37.9883Z" fill="#FCFCFC"/>
<path d="M151.444 40.7807C151.444 37.9328 153.723 36.4532 156.793 36.4532H161.099V35.5432C161.099 33.9178 160.134 32.8412 158.085 32.8412C156.036 32.8412 155.063 33.8901 154.723 35.3974L151.993 34.5152C152.688 32.2994 154.521 30.3892 158.113 30.3892C161.704 30.3892 163.975 32.3272 163.975 35.7447V41.524C163.975 42.0935 164.26 42.3783 164.774 42.3783H165.962V44.8234H163.739C162.433 44.8234 161.523 44.0802 161.523 42.9132V42.8298H161.099C160.676 43.7398 159.648 45.2194 156.744 45.2194C153.841 45.2194 151.444 43.6287 151.444 40.7807ZM161.099 39.0164V38.7316H157.001C155.431 38.7316 154.41 39.4262 154.41 40.6974C154.41 41.9685 155.431 42.7812 157.189 42.7812C159.474 42.8021 161.099 41.3781 161.099 39.0164Z" fill="#FCFCFC"/>
<path d="M168.782 24.8948H171.713V44.8235H168.782V24.8948Z" fill="#FCFCFC"/>
<defs>
<linearGradient id="paint0_linear_2322_1077" x1="33.7283" y1="36.5174" x2="18.9138" y2="4.19306" gradientUnits="userSpaceOnUse">
<stop stop-color="#6BFFFE"/>
<stop offset="0.29" stop-color="#64F5FE"/>
<stop offset="0.42" stop-color="#3EBAFB"/>
<stop offset="0.5" stop-color="#145CEF"/>
</linearGradient>
<linearGradient id="paint1_linear_2322_1077" x1="-5.51644" y1="24.2908" x2="18.2137" y2="23.7529" gradientUnits="userSpaceOnUse">
<stop stop-color="#F47616"/>
<stop offset="0.13" stop-color="#F47216"/>
<stop offset="0.26" stop-color="#F46716"/>
<stop offset="0.28" stop-color="#F46516"/>
<stop offset="0.45" stop-color="#F26216"/>
<stop offset="0.57" stop-color="#EA5916"/>
<stop offset="0.67" stop-color="#DE4A16"/>
<stop offset="0.75" stop-color="#D03916"/>
</linearGradient>
<linearGradient id="paint2_linear_2322_1077" x1="1.08355" y1="15.838" x2="19.2314" y2="16.7605" gradientUnits="userSpaceOnUse">
<stop stop-color="#F47616"/>
<stop offset="0.23" stop-color="#F4DBA9"/>
<stop offset="0.65" stop-color="#F2E4C7"/>
<stop offset="1" stop-color="#D23B16"/>
</linearGradient>
<linearGradient id="paint3_linear_2322_1077" x1="18.896" y1="22.6605" x2="21.6293" y2="22.7995" gradientUnits="userSpaceOnUse">
<stop stop-color="#1A5EF0"/>
<stop offset="0.23" stop-color="#125EF1"/>
<stop offset="0.99" stop-color="#69FCFE"/>
</linearGradient>
</defs>
</svg>
