<svg width="13" height="11" viewBox="0 0 13 11" fill="none" xmlns="http://www.w3.org/2000/svg">
<path d="M11.5 0.4375H1.5C1.16848 0.4375 0.850537 0.569196 0.616116 0.803616C0.381696 1.03804 0.25 1.35598 0.25 1.6875V9.1875C0.25 9.51902 0.381696 9.83696 0.616116 10.0714C0.850537 10.3058 1.16848 10.4375 1.5 10.4375H11.5C11.8315 10.4375 12.1495 10.3058 12.3839 10.0714C12.6183 9.83696 12.75 9.51902 12.75 9.1875V1.6875C12.75 1.35598 12.6183 1.03804 12.3839 0.803616C12.1495 0.569196 11.8315 0.4375 11.5 0.4375ZM11.5 3.375L6.5 6.70875L1.5 3.375V1.87312L6.5 5.20625L11.5 1.87312V3.375Z" fill="#145CEF"/>
</svg>
