<svg width="16" height="15" viewBox="0 0 16 15" fill="none" xmlns="http://www.w3.org/2000/svg">
<path d="M8.00002 0.924316C4.12877 0.924316 0.986877 4.0662 0.986877 7.93746C0.986877 11.8087 4.12877 14.9506 8.00002 14.9506C11.8713 14.9506 15.0132 11.8087 15.0132 7.93746C15.0132 4.0662 11.8713 0.924316 8.00002 0.924316ZM11.2541 5.69325C11.1489 6.80133 10.6931 9.49438 10.4616 10.7357C10.3635 11.2617 10.1671 11.437 9.98474 11.4581C9.57798 11.4931 9.2694 11.1916 8.87666 10.9321C8.25951 10.5253 7.90885 10.2728 7.31273 9.8801C6.61843 9.42425 7.06727 9.17177 7.46702 8.76501C7.57222 8.65981 9.36758 7.02575 9.40265 6.87847C9.40752 6.85617 9.40687 6.83301 9.40076 6.81101C9.39465 6.78901 9.38326 6.76884 9.36758 6.75224C9.3255 6.71717 9.2694 6.7312 9.22031 6.73821C9.15719 6.75224 8.17535 7.40446 6.26076 8.69488C5.98024 8.88423 5.72776 8.98242 5.50334 8.9754C5.25087 8.96839 4.77397 8.83514 4.4163 8.71592C3.97448 8.57566 3.63083 8.49851 3.65889 8.25305C3.67291 8.12681 3.84824 8.00058 4.17786 7.86733C6.2257 6.97666 7.58625 6.38756 8.26652 6.10703C10.2162 5.2935 10.6159 5.15324 10.8824 5.15324C10.9385 5.15324 11.0718 5.16727 11.1559 5.2374C11.2261 5.2935 11.2471 5.37065 11.2541 5.42675C11.2471 5.46883 11.2611 5.59507 11.2541 5.69325Z" fill="#25A4E2"/>
</svg>
