<svg width="16" height="15" viewBox="0 0 16 15" fill="none" xmlns="http://www.w3.org/2000/svg">
<path d="M8.00066 0.912842C11.8804 0.912842 15.0253 4.05776 15.0253 7.93745C15.0253 11.8171 11.8804 14.9621 8.00066 14.9621C6.75926 14.9641 5.5397 14.6355 4.46728 14.0102L0.978863 14.9621L1.92859 11.4722C1.30276 10.3995 0.97398 9.1794 0.976053 7.93745C0.976053 4.05776 4.12097 0.912842 8.00066 0.912842ZM5.60668 4.63588L5.46618 4.6415C5.37523 4.64704 5.28634 4.67094 5.20487 4.71175C5.12867 4.7549 5.0591 4.80885 4.99834 4.87191C4.91405 4.95129 4.86628 5.02013 4.815 5.08686C4.55518 5.42468 4.41528 5.83942 4.41741 6.26559C4.41881 6.6098 4.50873 6.94487 4.64922 7.25817C4.93653 7.89179 5.40928 8.56264 6.03307 9.18432C6.1834 9.33394 6.33091 9.48427 6.48967 9.62406C7.26476 10.3065 8.1884 10.7986 9.18712 11.0613L9.58612 11.1224C9.71607 11.1294 9.84603 11.1196 9.97668 11.1133C10.1813 11.1027 10.381 11.0473 10.5618 10.951C10.6538 10.9036 10.7436 10.8521 10.8309 10.7965C10.8309 10.7965 10.8611 10.7768 10.9187 10.7332C11.0135 10.663 11.0718 10.6131 11.1505 10.5309C11.2088 10.4705 11.2594 10.3996 11.298 10.3188C11.3528 10.2043 11.4076 9.98583 11.4301 9.80389C11.4469 9.6648 11.442 9.58894 11.4399 9.54187C11.4371 9.46671 11.3746 9.38873 11.3064 9.35572L10.8976 9.17238C10.8976 9.17238 10.2865 8.90614 9.91276 8.73615C9.87366 8.71907 9.83175 8.70931 9.78913 8.70735C9.74107 8.70241 9.6925 8.70782 9.6467 8.72321C9.6009 8.73859 9.55893 8.76361 9.5236 8.79656C9.52008 8.79515 9.47302 8.8352 8.96514 9.45055C8.93599 9.48972 8.89584 9.51932 8.8498 9.53559C8.80376 9.55185 8.75392 9.55404 8.70663 9.54187C8.66087 9.5296 8.61604 9.51411 8.57246 9.49551C8.48536 9.45898 8.45515 9.44493 8.39544 9.41964C7.99228 9.24371 7.61901 9.006 7.28907 8.71507C7.20056 8.6378 7.11837 8.55351 7.03408 8.47202C6.75772 8.20736 6.51687 7.90795 6.31757 7.5813L6.27612 7.51457C6.24635 7.46973 6.22228 7.42135 6.20447 7.37056C6.17778 7.2673 6.24732 7.18441 6.24732 7.18441C6.24732 7.18441 6.41802 6.99756 6.4974 6.8964C6.57467 6.79806 6.63999 6.70252 6.68214 6.63439C6.76503 6.50092 6.79102 6.36394 6.74747 6.25787C6.55078 5.77738 6.34707 5.29901 6.13774 4.82414C6.09629 4.73001 5.97336 4.66258 5.86167 4.64923C5.82374 4.64502 5.7858 4.6408 5.74787 4.63799C5.65353 4.6333 5.559 4.63424 5.46478 4.6408L5.60597 4.63518L5.60668 4.63588Z" fill="url(#paint0_linear_2094_389)"/>
<defs>
<linearGradient id="paint0_linear_2094_389" x1="12.678" y1="2.01665" x2="0.976044" y2="14.9621" gradientUnits="userSpaceOnUse">
<stop stop-color="#52CD5F"/>
<stop offset="1" stop-color="#28B43E"/>
</linearGradient>
</defs>
</svg>
