<svg width="46" height="46" viewBox="0 0 46 46" fill="none" xmlns="http://www.w3.org/2000/svg">
<rect width="46" height="46" rx="23" fill="#D5E2FC"/>
<path d="M15.679 15.5738C15.5665 15.6195 15.4293 15.7109 15.3239 15.8164C14.7614 16.3789 14.9618 17.4055 15.6895 17.6762L15.8864 17.75H23.4415H30.9965L31.1934 17.6762C32.1075 17.3352 32.1075 15.9148 31.1934 15.5738L30.9965 15.5L23.4309 15.5035C15.9145 15.5035 15.8653 15.5035 15.679 15.5738Z" fill="#145CEF"/>
<path d="M15.679 21.1988C15.5665 21.2445 15.4293 21.3359 15.3239 21.4414C14.7614 22.0039 14.9618 23.0305 15.6895 23.3012L15.8864 23.375H23.4415H30.9965L31.1934 23.3012C32.1075 22.9602 32.1075 21.5398 31.1934 21.1988L30.9965 21.125L23.4309 21.1285C15.9145 21.1285 15.8653 21.1285 15.679 21.1988Z" fill="#145CEF"/>
<path d="M15.679 26.8238C15.5665 26.8695 15.4293 26.9609 15.3239 27.0664C14.7614 27.6289 14.9618 28.6555 15.6895 28.9262L15.8864 29H23.4415H30.9965L31.1934 28.9262C32.1075 28.5852 32.1075 27.1648 31.1934 26.8238L30.9965 26.75L23.4309 26.7535C15.9145 26.7535 15.8653 26.7535 15.679 26.8238Z" fill="#145CEF"/>
</svg>
